# xmcd
#
# Track frame offsets: 
#        150
#        19748
#        31915
#        47023
#        65855
#
# Disc length: 1092 seconds
#
# Revision: 0
# Processed by: cddbd v1.5.2PL0 Copyright (c) Steve Scherf et al.
# Submitted via: ExactAudioCopy v0.95b4
#
DISCID=3d044205
DTITLE=Kiira Bivens - Love, Lipstick and Poetry
DYEAR=2006
DGENRE=Country
TTITLE0=I'm Done With Goodbyes
TTITLE1=Craving
TTITLE2=The Song Is Love
TTITLE3=I Got What I Wanted
TTITLE4=I Don't Wanna Fly
EXTD=
EXTT0=
EXTT1=
EXTT2=
EXTT3=
EXTT4=
PLAYORDER=
